<svg xmlns="http://www.w3.org/2000/svg" xmlns:xlink="http://www.w3.org/1999/xlink" width="42" zoomAndPan="magnify" viewBox="0 0 31.5 34.5" height="46" preserveAspectRatio="xMidYMid meet" version="1.0"><defs><clipPath id="8da1d0402f"><path d="M 2 1 L 30 1 L 30 31 L 2 31 Z M 2 1 " clip-rule="nonzero"/></clipPath><clipPath id="4b8832d81d"><path d="M 14.574219 0.0234375 L 30.496094 9.539062 L 17.449219 31.367188 L 1.53125 21.851562 Z M 14.574219 0.0234375 " clip-rule="nonzero"/></clipPath><clipPath id="584dad4739"><path d="M 17.109375 1.539062 L 27.960938 8.023438 C 28.632812 8.425781 29.117188 9.078125 29.308594 9.835938 C 29.5 10.597656 29.382812 11.402344 28.980469 12.074219 L 19 28.773438 C 18.597656 29.445312 17.945312 29.929688 17.1875 30.121094 C 16.425781 30.3125 15.621094 30.195312 14.949219 29.792969 L 4.101562 23.308594 C 3.425781 22.90625 2.941406 22.253906 2.75 21.496094 C 2.558594 20.738281 2.679688 19.933594 3.078125 19.261719 L 13.058594 2.558594 C 13.460938 1.886719 14.113281 1.402344 14.875 1.210938 C 15.632812 1.019531 16.4375 1.136719 17.109375 1.539062 Z M 17.109375 1.539062 " clip-rule="nonzero"/></clipPath><clipPath id="3b1507935a"><path d="M 0.363281 0 L 27.53125 0 L 27.53125 29.5 L 0.363281 29.5 Z M 0.363281 0 " clip-rule="nonzero"/></clipPath><clipPath id="a2e49850ad"><path d="M 12.574219 -0.976562 L 28.496094 8.539062 L 15.449219 30.367188 L -0.46875 20.851562 Z M 12.574219 -0.976562 " clip-rule="nonzero"/></clipPath><clipPath id="b8e9b091f5"><path d="M 15.109375 0.539062 L 25.960938 7.023438 C 26.632812 7.425781 27.117188 8.078125 27.308594 8.835938 C 27.5 9.597656 27.382812 10.402344 26.980469 11.074219 L 17 27.773438 C 16.597656 28.445312 15.945312 28.929688 15.1875 29.121094 C 14.425781 29.3125 13.621094 29.195312 12.949219 28.792969 L 2.101562 22.308594 C 1.425781 21.90625 0.941406 21.253906 0.75 20.496094 C 0.558594 19.738281 0.679688 18.933594 1.078125 18.261719 L 11.058594 1.558594 C 11.460938 0.886719 12.113281 0.402344 12.875 0.210938 C 13.632812 0.0195312 14.4375 0.136719 15.109375 0.539062 Z M 15.109375 0.539062 " clip-rule="nonzero"/></clipPath><clipPath id="d9d7e1e781"><rect x="0" width="28" y="0" height="30"/></clipPath><clipPath id="ef35311ccd"><path d="M 2 1 L 30 1 L 30 31 L 2 31 Z M 2 1 " clip-rule="nonzero"/></clipPath><clipPath id="d2b5abeee1"><path d="M 14.574219 0.0234375 L 30.417969 9.492188 L 17.542969 31.039062 L 1.699219 21.574219 Z M 14.574219 0.0234375 " clip-rule="nonzero"/></clipPath><clipPath id="7776a82788"><path d="M 14.574219 0.0273438 L 30.855469 9.757812 L 17.539062 32.042969 L 1.257812 22.3125 Z M 14.574219 0.0273438 " clip-rule="nonzero"/></clipPath><clipPath id="a975ff1c7b"><path d="M 17.105469 1.542969 L 27.953125 8.023438 C 28.625 8.425781 29.109375 9.078125 29.300781 9.835938 C 29.492188 10.59375 29.375 11.398438 28.972656 12.070312 L 18.996094 28.761719 C 18.59375 29.433594 17.941406 29.921875 17.183594 30.113281 C 16.425781 30.300781 15.621094 30.183594 14.949219 29.78125 L 4.101562 23.300781 C 3.429688 22.898438 2.945312 22.25 2.753906 21.488281 C 2.5625 20.730469 2.683594 19.925781 3.082031 19.253906 L 13.058594 2.5625 C 13.460938 1.890625 14.113281 1.40625 14.871094 1.214844 C 15.628906 1.023438 16.433594 1.140625 17.105469 1.542969 Z M 17.105469 1.542969 " clip-rule="nonzero"/></clipPath><clipPath id="9e84764782"><path d="M 2 2 L 28 2 L 28 31 L 2 31 Z M 2 2 " clip-rule="nonzero"/></clipPath><clipPath id="58631b1bb3"><path d="M 14.222656 1.578125 L 28.929688 10.363281 L 16.261719 31.558594 L 1.558594 22.773438 Z M 14.222656 1.578125 " clip-rule="nonzero"/></clipPath><clipPath id="5ffe62509a"><path d="M 27.414062 12.898438 L 17.789062 29.007812 C 17.386719 29.679688 16.734375 30.164062 15.972656 30.355469 C 15.214844 30.546875 14.410156 30.429688 13.738281 30.027344 L 4.105469 24.269531 C 3.433594 23.867188 2.945312 23.214844 2.753906 22.457031 C 2.5625 21.695312 2.683594 20.894531 3.085938 20.21875 L 12.710938 4.113281 C 13.113281 3.441406 13.765625 2.957031 14.523438 2.765625 C 15.28125 2.574219 16.085938 2.691406 16.757812 3.09375 L 26.394531 8.851562 C 27.066406 9.253906 27.550781 9.90625 27.742188 10.664062 C 27.933594 11.421875 27.816406 12.226562 27.414062 12.898438 Z M 27.414062 12.898438 " clip-rule="nonzero"/></clipPath><clipPath id="45e93537d7"><path d="M 0.363281 0.386719 L 26 0.386719 L 26 28.734375 L 0.363281 28.734375 Z M 0.363281 0.386719 " clip-rule="nonzero"/></clipPath><clipPath id="84589bad61"><path d="M 12.222656 -0.421875 L 26.929688 8.363281 L 14.261719 29.558594 L -0.441406 20.773438 Z M 12.222656 -0.421875 " clip-rule="nonzero"/></clipPath><clipPath id="e548f9ce36"><path d="M 25.414062 10.898438 L 15.789062 27.007812 C 15.386719 27.679688 14.734375 28.164062 13.972656 28.355469 C 13.214844 28.546875 12.410156 28.429688 11.738281 28.027344 L 2.105469 22.269531 C 1.433594 21.867188 0.945312 21.214844 0.753906 20.457031 C 0.5625 19.695312 0.683594 18.894531 1.085938 18.21875 L 10.710938 2.113281 C 11.113281 1.441406 11.765625 0.957031 12.523438 0.765625 C 13.28125 0.574219 14.085938 0.691406 14.757812 1.09375 L 24.394531 6.851562 C 25.066406 7.253906 25.550781 7.90625 25.742188 8.664062 C 25.933594 9.421875 25.816406 10.226562 25.414062 10.898438 Z M 25.414062 10.898438 " clip-rule="nonzero"/></clipPath><clipPath id="3d0501e064"><rect x="0" width="26" y="0" height="29"/></clipPath><clipPath id="5b1a573a57"><path d="M 1 3 L 28 3 L 28 33 L 1 33 Z M 1 3 " clip-rule="nonzero"/></clipPath><clipPath id="d1a06f401e"><path d="M 13.007812 2.703125 L 28.925781 12.214844 L 15.882812 34.042969 L -0.0351562 24.53125 Z M 13.007812 2.703125 " clip-rule="nonzero"/></clipPath><clipPath id="1ff867f187"><path d="M 15.542969 4.21875 L 26.394531 10.703125 C 27.066406 11.101562 27.550781 11.753906 27.742188 12.515625 C 27.933594 13.273438 27.816406 14.078125 27.414062 14.75 L 17.433594 31.449219 C 17.03125 32.125 16.378906 32.609375 15.621094 32.800781 C 14.859375 32.992188 14.054688 32.871094 13.382812 32.472656 L 2.53125 25.988281 C 1.859375 25.585938 1.375 24.933594 1.183594 24.171875 C 0.992188 23.414062 1.109375 22.609375 1.511719 21.9375 L 11.492188 5.238281 C 11.894531 4.566406 12.546875 4.078125 13.304688 3.886719 C 14.066406 3.699219 14.871094 3.816406 15.542969 4.21875 Z M 15.542969 4.21875 " clip-rule="nonzero"/></clipPath><clipPath id="3a4181093e"><path d="M 0 0.566406 L 27 0.566406 L 27 30 L 0 30 Z M 0 0.566406 " clip-rule="nonzero"/></clipPath><clipPath id="cb7680934c"><path d="M 12.007812 -0.296875 L 27.925781 9.214844 L 14.882812 31.042969 L -1.035156 21.53125 Z M 12.007812 -0.296875 " clip-rule="nonzero"/></clipPath><clipPath id="daf153be2c"><path d="M 14.542969 1.21875 L 25.394531 7.703125 C 26.066406 8.101562 26.550781 8.753906 26.742188 9.515625 C 26.933594 10.273438 26.816406 11.078125 26.414062 11.75 L 16.433594 28.449219 C 16.03125 29.125 15.378906 29.609375 14.621094 29.800781 C 13.859375 29.992188 13.054688 29.871094 12.382812 29.472656 L 1.53125 22.988281 C 0.859375 22.585938 0.375 21.933594 0.183594 21.171875 C -0.0078125 20.414062 0.109375 19.609375 0.511719 18.9375 L 10.492188 2.238281 C 10.894531 1.566406 11.546875 1.078125 12.304688 0.886719 C 13.066406 0.699219 13.871094 0.816406 14.542969 1.21875 Z M 14.542969 1.21875 " clip-rule="nonzero"/></clipPath><clipPath id="374a62c553"><rect x="0" width="27" y="0" height="30"/></clipPath><clipPath id="8fcca16f8e"><path d="M 1 3 L 28 3 L 28 33 L 1 33 Z M 1 3 " clip-rule="nonzero"/></clipPath><clipPath id="50d1a7b8a3"><path d="M 13.007812 2.703125 L 28.851562 12.171875 L 15.972656 33.71875 L 0.132812 24.25 Z M 13.007812 2.703125 " clip-rule="nonzero"/></clipPath><clipPath id="c2f5d2ad6b"><path d="M 13.007812 2.707031 L 29.289062 12.4375 L 15.972656 34.71875 L -0.308594 24.988281 Z M 13.007812 2.707031 " clip-rule="nonzero"/></clipPath><clipPath id="ce07fd1e07"><path d="M 15.539062 4.21875 L 26.386719 10.699219 C 27.058594 11.101562 27.542969 11.753906 27.734375 12.511719 C 27.925781 13.273438 27.804688 14.078125 27.40625 14.75 L 17.429688 31.441406 C 17.027344 32.113281 16.375 32.597656 15.617188 32.789062 C 14.855469 32.980469 14.054688 32.863281 13.382812 32.460938 L 2.535156 25.980469 C 1.863281 25.578125 1.378906 24.925781 1.1875 24.167969 C 0.996094 23.40625 1.113281 22.601562 1.515625 21.929688 L 11.492188 5.238281 C 11.894531 4.566406 12.546875 4.082031 13.304688 3.890625 C 14.0625 3.699219 14.867188 3.816406 15.539062 4.21875 Z M 15.539062 4.21875 " clip-rule="nonzero"/></clipPath><clipPath id="5fc0a1f62c"><path d="M 10 6 L 17 6 L 17 16 L 10 16 Z M 10 6 " clip-rule="nonzero"/></clipPath><clipPath id="b4f75b2f2e"><path d="M 14.765625 6.199219 L 17.003906 7.53125 L 12.164062 15.652344 L 9.929688 14.316406 Z M 14.765625 6.199219 " clip-rule="nonzero"/></clipPath><clipPath id="2e94ba7f14"><path d="M 15.882812 6.867188 C 16.179688 7.042969 16.394531 7.328125 16.480469 7.664062 C 16.5625 8 16.511719 8.355469 16.335938 8.648438 L 12.832031 14.53125 C 12.65625 14.828125 12.367188 15.042969 12.035156 15.125 C 11.699219 15.210938 11.34375 15.160156 11.046875 14.984375 C 10.75 14.804688 10.535156 14.519531 10.453125 14.183594 C 10.367188 13.847656 10.417969 13.496094 10.59375 13.199219 L 14.097656 7.316406 C 14.273438 7.019531 14.5625 6.804688 14.898438 6.722656 C 15.230469 6.636719 15.585938 6.6875 15.882812 6.867188 Z M 15.882812 6.867188 " clip-rule="nonzero"/></clipPath><clipPath id="d84c6ac4d7"><path d="M 0.160156 0.402344 L 6.773438 0.402344 L 6.773438 9.378906 L 0.160156 9.378906 Z M 0.160156 0.402344 " clip-rule="nonzero"/></clipPath><clipPath id="f8e7f706a3"><path d="M 4.765625 0.199219 L 7.003906 1.53125 L 2.164062 9.652344 L -0.0703125 8.316406 Z M 4.765625 0.199219 " clip-rule="nonzero"/></clipPath><clipPath id="fcef69db6f"><path d="M 5.882812 0.867188 C 6.179688 1.042969 6.394531 1.328125 6.480469 1.664062 C 6.5625 2 6.511719 2.355469 6.335938 2.648438 L 2.832031 8.53125 C 2.65625 8.828125 2.367188 9.042969 2.035156 9.125 C 1.699219 9.210938 1.34375 9.160156 1.046875 8.984375 C 0.75 8.804688 0.535156 8.519531 0.453125 8.183594 C 0.367188 7.847656 0.417969 7.496094 0.59375 7.199219 L 4.097656 1.316406 C 4.273438 1.019531 4.5625 0.804688 4.898438 0.722656 C 5.230469 0.636719 5.585938 0.6875 5.882812 0.867188 Z M 5.882812 0.867188 " clip-rule="nonzero"/></clipPath><clipPath id="9bd8524146"><rect x="0" width="7" y="0" height="10"/></clipPath><clipPath id="95fc7cbad9"><path d="M 10 6 L 17 6 L 17 16 L 10 16 Z M 10 6 " clip-rule="nonzero"/></clipPath><clipPath id="366da2a8ec"><path d="M 14.765625 6.199219 L 17.300781 7.710938 L 12.390625 15.957031 L 9.851562 14.445312 Z M 14.765625 6.199219 " clip-rule="nonzero"/></clipPath><clipPath id="00839b57d8"><path d="M 14.757812 6.210938 L 17.609375 7.910156 L 12.511719 16.460938 L 9.664062 14.765625 Z M 14.757812 6.210938 " clip-rule="nonzero"/></clipPath><clipPath id="f54ec2bae8"><path d="M 15.871094 6.875 C 16.167969 7.050781 16.382812 7.339844 16.464844 7.671875 C 16.550781 8.007812 16.5 8.359375 16.324219 8.65625 L 12.832031 14.515625 C 12.65625 14.8125 12.367188 15.023438 12.035156 15.109375 C 11.703125 15.195312 11.347656 15.140625 11.050781 14.964844 C 10.757812 14.789062 10.542969 14.503906 10.457031 14.171875 C 10.375 13.835938 10.425781 13.484375 10.601562 13.1875 L 14.09375 7.328125 C 14.269531 7.03125 14.554688 6.816406 14.890625 6.734375 C 15.222656 6.648438 15.574219 6.699219 15.871094 6.875 Z M 15.871094 6.875 " clip-rule="nonzero"/></clipPath><clipPath id="cbbaec2c37"><path d="M 10 9 L 15 9 L 15 16 L 10 16 Z M 10 9 " clip-rule="nonzero"/></clipPath><clipPath id="153af38719"><path d="M 12.875 9.472656 L 15.042969 10.765625 L 12.140625 15.640625 L 9.972656 14.351562 Z M 12.875 9.472656 " clip-rule="nonzero"/></clipPath><clipPath id="3770463050"><path d="M 13.960938 10.121094 C 14.558594 10.476562 14.753906 11.25 14.398438 11.847656 L 12.789062 14.550781 C 12.433594 15.148438 11.65625 15.347656 11.058594 14.988281 C 10.460938 14.632812 10.265625 13.859375 10.621094 13.261719 L 12.230469 10.558594 C 12.585938 9.957031 13.363281 9.761719 13.960938 10.121094 Z M 13.960938 10.121094 " clip-rule="nonzero"/></clipPath><clipPath id="680a0ac861"><path d="M 0.160156 0.710938 L 4.882812 0.710938 L 4.882812 6.378906 L 0.160156 6.378906 Z M 0.160156 0.710938 " clip-rule="nonzero"/></clipPath><clipPath id="d8a8cf325a"><path d="M 2.875 0.472656 L 5.042969 1.765625 L 2.140625 6.640625 L -0.0273438 5.351562 Z M 2.875 0.472656 " clip-rule="nonzero"/></clipPath><clipPath id="72a40b9d70"><path d="M 3.960938 1.121094 C 4.558594 1.476562 4.753906 2.25 4.398438 2.847656 L 2.789062 5.550781 C 2.433594 6.148438 1.65625 6.347656 1.058594 5.988281 C 0.460938 5.632812 0.265625 4.859375 0.621094 4.261719 L 2.230469 1.558594 C 2.585938 0.957031 3.363281 0.761719 3.960938 1.121094 Z M 3.960938 1.121094 " clip-rule="nonzero"/></clipPath><clipPath id="9e5a20efc5"><rect x="0" width="5" y="0" height="7"/></clipPath><clipPath id="efb4e18909"><path d="M 10 9 L 15 9 L 15 16 L 10 16 Z M 10 9 " clip-rule="nonzero"/></clipPath><clipPath id="1fbb09910c"><path d="M 12.875 9.472656 L 14.78125 10.605469 L 11.757812 15.679688 L 9.855469 14.546875 Z M 12.875 9.472656 " clip-rule="nonzero"/></clipPath><clipPath id="2e8d47d678"><path d="M 12.875 9.480469 L 15.722656 11.175781 L 12.328125 16.878906 L 9.476562 15.179688 Z M 12.875 9.480469 " clip-rule="nonzero"/></clipPath><clipPath id="7870ff41dd"><path d="M 13.953125 10.121094 C 14.550781 10.476562 14.746094 11.25 14.390625 11.847656 L 12.785156 14.539062 C 12.429688 15.136719 11.65625 15.332031 11.0625 14.976562 C 10.464844 14.621094 10.269531 13.851562 10.625 13.253906 L 12.230469 10.558594 C 12.585938 9.960938 13.355469 9.765625 13.953125 10.121094 Z M 13.953125 10.121094 " clip-rule="nonzero"/></clipPath><clipPath id="b3bf00d7aa"><path d="M 11 14 L 18 14 L 18 23 L 11 23 Z M 11 14 " clip-rule="nonzero"/></clipPath><clipPath id="cdfbcbe756"><path d="M 15.765625 13.609375 L 18.003906 14.941406 L 13.15625 23.078125 L 10.917969 21.746094 Z M 15.765625 13.609375 " clip-rule="nonzero"/></clipPath><clipPath id="09d8ab909a"><path d="M 16.886719 14.277344 C 17.179688 14.453125 17.394531 14.738281 17.480469 15.074219 C 17.566406 15.410156 17.515625 15.765625 17.335938 16.0625 L 13.824219 21.960938 C 13.644531 22.257812 13.359375 22.46875 13.023438 22.554688 C 12.691406 22.640625 12.335938 22.589844 12.039062 22.410156 C 11.742188 22.234375 11.527344 21.949219 11.441406 21.613281 C 11.359375 21.277344 11.410156 20.921875 11.585938 20.625 L 15.101562 14.726562 C 15.277344 14.429688 15.5625 14.21875 15.898438 14.132812 C 16.234375 14.046875 16.589844 14.097656 16.886719 14.277344 Z M 16.886719 14.277344 " clip-rule="nonzero"/></clipPath><clipPath id="72fdd42222"><path d="M 0.339844 0 L 6.71875 0 L 6.71875 8.703125 L 0.339844 8.703125 Z M 0.339844 0 " clip-rule="nonzero"/></clipPath><clipPath id="b97ccbb46a"><path d="M 4.765625 -0.390625 L 7.003906 0.941406 L 2.15625 9.078125 L -0.0820312 7.746094 Z M 4.765625 -0.390625 " clip-rule="nonzero"/></clipPath><clipPath id="f7de475d7e"><path d="M 5.886719 0.277344 C 6.179688 0.453125 6.394531 0.738281 6.480469 1.074219 C 6.566406 1.410156 6.515625 1.765625 6.335938 2.0625 L 2.824219 7.960938 C 2.644531 8.257812 2.359375 8.46875 2.023438 8.554688 C 1.691406 8.640625 1.335938 8.589844 1.039062 8.410156 C 0.742188 8.234375 0.527344 7.949219 0.441406 7.613281 C 0.359375 7.277344 0.410156 6.921875 0.585938 6.625 L 4.101562 0.726562 C 4.277344 0.429688 4.5625 0.21875 4.898438 0.132812 C 5.234375 0.046875 5.589844 0.0976562 5.886719 0.277344 Z M 5.886719 0.277344 " clip-rule="nonzero"/></clipPath><clipPath id="8207b311b1"><rect x="0" width="7" y="0" height="9"/></clipPath><clipPath id="8dd3657f70"><path d="M 11 14 L 18 14 L 18 23 L 11 23 Z M 11 14 " clip-rule="nonzero"/></clipPath><clipPath id="38b7daeca8"><path d="M 15.765625 13.609375 L 18.304688 15.121094 L 13.390625 23.367188 L 10.855469 21.855469 Z M 15.765625 13.609375 " clip-rule="nonzero"/></clipPath><clipPath id="cb5213501a"><path d="M 15.761719 13.617188 L 18.613281 15.316406 L 13.515625 23.867188 L 10.667969 22.171875 Z M 15.761719 13.617188 " clip-rule="nonzero"/></clipPath><clipPath id="be578c065d"><path d="M 16.875 14.28125 C 17.171875 14.460938 17.386719 14.746094 17.46875 15.078125 C 17.554688 15.414062 17.503906 15.765625 17.328125 16.0625 L 13.824219 21.941406 C 13.648438 22.234375 13.363281 22.449219 13.027344 22.535156 C 12.695312 22.617188 12.339844 22.566406 12.046875 22.390625 C 11.75 22.214844 11.535156 21.929688 11.453125 21.59375 C 11.367188 21.261719 11.417969 20.90625 11.59375 20.613281 L 15.097656 14.734375 C 15.273438 14.4375 15.558594 14.222656 15.894531 14.140625 C 16.226562 14.054688 16.578125 14.105469 16.875 14.28125 Z M 16.875 14.28125 " clip-rule="nonzero"/></clipPath><clipPath id="67331949f3"><path d="M 11 17 L 16 17 L 16 23 L 11 23 Z M 11 17 " clip-rule="nonzero"/></clipPath><clipPath id="da3776076a"><path d="M 13.9375 16.914062 L 15.972656 18.125 L 13.058594 23.011719 L 11.027344 21.800781 Z M 13.9375 16.914062 " clip-rule="nonzero"/></clipPath><clipPath id="72add214f9"><path d="M 14.953125 17.519531 C 15.515625 17.851562 15.699219 18.578125 15.363281 19.140625 L 13.667969 21.988281 C 13.332031 22.550781 12.605469 22.734375 12.046875 22.398438 C 11.484375 22.066406 11.300781 21.339844 11.632812 20.777344 L 13.332031 17.929688 C 13.664062 17.367188 14.390625 17.183594 14.953125 17.519531 Z M 14.953125 17.519531 " clip-rule="nonzero"/></clipPath><clipPath id="799fb18f9e"><path d="M 0.105469 0.0351562 L 4.828125 0.0351562 L 4.828125 5.941406 L 0.105469 5.941406 Z M 0.105469 0.0351562 " clip-rule="nonzero"/></clipPath><clipPath id="205dd8369a"><path d="M 2.9375 -0.0859375 L 4.972656 1.125 L 2.058594 6.011719 L 0.0273438 4.800781 Z M 2.9375 -0.0859375 " clip-rule="nonzero"/></clipPath><clipPath id="033afa483e"><path d="M 3.953125 0.519531 C 4.515625 0.851562 4.699219 1.578125 4.363281 2.140625 L 2.667969 4.988281 C 2.332031 5.550781 1.605469 5.734375 1.046875 5.398438 C 0.484375 5.066406 0.300781 4.339844 0.632812 3.777344 L 2.332031 0.929688 C 2.664062 0.367188 3.390625 0.183594 3.953125 0.519531 Z M 3.953125 0.519531 " clip-rule="nonzero"/></clipPath><clipPath id="efc4105edc"><rect x="0" width="5" y="0" height="6"/></clipPath><clipPath id="8e04e9b905"><path d="M 11 17 L 16 17 L 16 23 L 11 23 Z M 11 17 " clip-rule="nonzero"/></clipPath><clipPath id="862b65e97e"><path d="M 13.9375 16.914062 L 15.839844 18.046875 L 12.816406 23.121094 L 10.914062 21.988281 Z M 13.9375 16.914062 " clip-rule="nonzero"/></clipPath><clipPath id="8d677c0a5c"><path d="M 13.9375 16.914062 L 16.792969 18.613281 L 13.390625 24.328125 L 10.53125 22.625 Z M 13.9375 16.914062 " clip-rule="nonzero"/></clipPath><clipPath id="3114ef1d57"><path d="M 14.953125 17.519531 C 15.515625 17.851562 15.699219 18.578125 15.363281 19.140625 L 13.667969 21.984375 C 13.335938 22.542969 12.609375 22.726562 12.046875 22.394531 C 11.488281 22.058594 11.304688 21.332031 11.636719 20.773438 L 13.332031 17.929688 C 13.664062 17.367188 14.390625 17.183594 14.953125 17.519531 Z M 14.953125 17.519531 " clip-rule="nonzero"/></clipPath><clipPath id="c470af379e"><path d="M 18 11 L 25 11 L 25 20 L 18 20 Z M 18 11 " clip-rule="nonzero"/></clipPath><clipPath id="f583d80263"><path d="M 22.773438 10.984375 L 25.011719 12.316406 L 20.175781 20.4375 L 17.9375 19.101562 Z M 22.773438 10.984375 " clip-rule="nonzero"/></clipPath><clipPath id="3a2da8cfe8"><path d="M 23.894531 11.652344 C 24.191406 11.828125 24.402344 12.113281 24.488281 12.449219 C 24.574219 12.785156 24.523438 13.140625 24.34375 13.4375 L 20.84375 19.316406 C 20.664062 19.613281 20.378906 19.828125 20.042969 19.910156 C 19.707031 19.996094 19.355469 19.945312 19.058594 19.769531 C 18.761719 19.589844 18.546875 19.304688 18.460938 18.96875 C 18.375 18.632812 18.429688 18.28125 18.605469 17.984375 L 22.109375 12.101562 C 22.285156 11.804688 22.570312 11.59375 22.90625 11.507812 C 23.242188 11.421875 23.597656 11.472656 23.894531 11.652344 Z M 23.894531 11.652344 " clip-rule="nonzero"/></clipPath><clipPath id="b080a956e2"><path d="M 0.191406 0.363281 L 6.804688 0.363281 L 6.804688 9 L 0.191406 9 Z M 0.191406 0.363281 " clip-rule="nonzero"/></clipPath><clipPath id="ad09eb5a15"><path d="M 4.773438 -0.015625 L 7.011719 1.316406 L 2.175781 9.4375 L -0.0625 8.101562 Z M 4.773438 -0.015625 " clip-rule="nonzero"/></clipPath><clipPath id="1bc3216faf"><path d="M 5.894531 0.652344 C 6.191406 0.828125 6.402344 1.113281 6.488281 1.449219 C 6.574219 1.785156 6.523438 2.140625 6.34375 2.4375 L 2.84375 8.316406 C 2.664062 8.613281 2.378906 8.828125 2.042969 8.910156 C 1.707031 8.996094 1.355469 8.945312 1.058594 8.769531 C 0.761719 8.589844 0.546875 8.304688 0.460938 7.96875 C 0.375 7.632812 0.429688 7.28125 0.605469 6.984375 L 4.109375 1.101562 C 4.285156 0.804688 4.570312 0.59375 4.90625 0.507812 C 5.242188 0.421875 5.597656 0.472656 5.894531 0.652344 Z M 5.894531 0.652344 " clip-rule="nonzero"/></clipPath><clipPath id="15b6f2e2da"><rect x="0" width="7" y="0" height="9"/></clipPath><clipPath id="28ed365938"><path d="M 18 11 L 25 11 L 25 20 L 18 20 Z M 18 11 " clip-rule="nonzero"/></clipPath><clipPath id="8ef4aa0d89"><path d="M 22.773438 10.984375 L 25.3125 12.496094 L 20.398438 20.742188 L 17.863281 19.230469 Z M 22.773438 10.984375 " clip-rule="nonzero"/></clipPath><clipPath id="08253f5105"><path d="M 22.765625 10.996094 L 25.617188 12.695312 L 20.523438 21.246094 L 17.671875 19.550781 Z M 22.765625 10.996094 " clip-rule="nonzero"/></clipPath><clipPath id="84cc976b5b"><path d="M 23.882812 11.660156 C 24.175781 11.835938 24.390625 12.125 24.476562 12.457031 C 24.558594 12.792969 24.507812 13.144531 24.332031 13.441406 L 20.839844 19.300781 C 20.664062 19.597656 20.378906 19.808594 20.042969 19.894531 C 19.710938 19.980469 19.359375 19.929688 19.0625 19.75 C 18.765625 19.574219 18.550781 19.289062 18.46875 18.957031 C 18.382812 18.621094 18.433594 18.269531 18.609375 17.972656 L 22.101562 12.113281 C 22.277344 11.816406 22.566406 11.601562 22.898438 11.519531 C 23.230469 11.433594 23.585938 11.484375 23.882812 11.660156 Z M 23.882812 11.660156 " clip-rule="nonzero"/></clipPath><clipPath id="4d12a47961"><path d="M 18 14 L 23 14 L 23 20 L 18 20 Z M 18 14 " clip-rule="nonzero"/></clipPath><clipPath id="42efdf36e2"><path d="M 20.941406 14.289062 L 22.976562 15.5 L 20.070312 20.378906 L 18.035156 19.167969 Z M 20.941406 14.289062 " clip-rule="nonzero"/></clipPath><clipPath id="a12403646a"><path d="M 21.957031 14.894531 C 22.519531 15.230469 22.703125 15.957031 22.371094 16.519531 L 20.679688 19.355469 C 20.34375 19.917969 19.617188 20.101562 19.054688 19.765625 C 18.496094 19.429688 18.3125 18.703125 18.644531 18.144531 L 20.335938 15.308594 C 20.667969 14.746094 21.394531 14.5625 21.957031 14.894531 Z M 21.957031 14.894531 " clip-rule="nonzero"/></clipPath><clipPath id="94d812cb3b"><path d="M 0.191406 0.433594 L 4.917969 0.433594 L 4.917969 6 L 0.191406 6 Z M 0.191406 0.433594 " clip-rule="nonzero"/></clipPath><clipPath id="723f771579"><path d="M 2.941406 0.289062 L 4.976562 1.5 L 2.070312 6.378906 L 0.0351562 5.167969 Z M 2.941406 0.289062 " clip-rule="nonzero"/></clipPath><clipPath id="c3a137629b"><path d="M 3.957031 0.894531 C 4.519531 1.230469 4.703125 1.957031 4.371094 2.519531 L 2.679688 5.355469 C 2.34375 5.917969 1.617188 6.101562 1.054688 5.765625 C 0.496094 5.429688 0.3125 4.703125 0.644531 4.144531 L 2.335938 1.308594 C 2.667969 0.746094 3.394531 0.5625 3.957031 0.894531 Z M 3.957031 0.894531 " clip-rule="nonzero"/></clipPath><clipPath id="3e6842c2b5"><rect x="0" width="5" y="0" height="6"/></clipPath><clipPath id="2553f56b20"><path d="M 18 14 L 23 14 L 23 20 L 18 20 Z M 18 14 " clip-rule="nonzero"/></clipPath><clipPath id="1d3e1370b3"><path d="M 20.941406 14.289062 L 22.84375 15.421875 L 19.820312 20.496094 L 17.917969 19.363281 Z M 20.941406 14.289062 " clip-rule="nonzero"/></clipPath><clipPath id="f5310d05a2"><path d="M 20.941406 14.289062 L 23.796875 15.992188 L 20.394531 21.707031 L 17.535156 20.003906 Z M 20.941406 14.289062 " clip-rule="nonzero"/></clipPath><clipPath id="76d60f0698"><path d="M 21.957031 14.894531 C 22.519531 15.230469 22.703125 15.957031 22.367188 16.515625 L 20.679688 19.351562 C 20.34375 19.910156 19.621094 20.09375 19.058594 19.761719 C 18.496094 19.425781 18.3125 18.699219 18.648438 18.140625 L 20.335938 15.304688 C 20.667969 14.746094 21.394531 14.5625 21.957031 14.894531 Z M 21.957031 14.894531 " clip-rule="nonzero"/></clipPath><clipPath id="583f167e1d"><path d="M 6 16 L 12 16 L 12 21 L 6 21 Z M 6 16 " clip-rule="nonzero"/></clipPath><clipPath id="f094553a2f"><path d="M 6.488281 17.996094 L 7.835938 15.730469 L 12.089844 18.265625 L 10.738281 20.527344 Z M 6.488281 17.996094 " clip-rule="nonzero"/></clipPath><clipPath id="16ff8104bc"><path d="M 7.160156 16.863281 C 7.339844 16.5625 7.632812 16.347656 7.96875 16.261719 C 8.308594 16.175781 8.667969 16.226562 8.96875 16.40625 L 10.949219 17.585938 C 11.25 17.765625 11.464844 18.054688 11.550781 18.394531 C 11.636719 18.734375 11.585938 19.09375 11.40625 19.390625 C 11.226562 19.691406 10.9375 19.910156 10.597656 19.996094 C 10.257812 20.082031 9.898438 20.027344 9.601562 19.847656 L 7.621094 18.667969 C 7.320312 18.492188 7.101562 18.199219 7.015625 17.859375 C 6.929688 17.523438 6.984375 17.164062 7.160156 16.863281 Z M 7.160156 16.863281 " clip-rule="nonzero"/></clipPath><clipPath id="7e993718d7"><path d="M 0.851562 0.0898438 L 5.8125 0.0898438 L 5.8125 4.105469 L 0.851562 4.105469 Z M 0.851562 0.0898438 " clip-rule="nonzero"/></clipPath><clipPath id="b66981f2a7"><path d="M 0.488281 1.996094 L 1.835938 -0.269531 L 6.089844 2.265625 L 4.738281 4.527344 Z M 0.488281 1.996094 " clip-rule="nonzero"/></clipPath><clipPath id="2b9df22b79"><path d="M 1.160156 0.863281 C 1.339844 0.5625 1.632812 0.347656 1.96875 0.261719 C 2.308594 0.175781 2.667969 0.226562 2.96875 0.40625 L 4.949219 1.585938 C 5.25 1.765625 5.464844 2.054688 5.550781 2.394531 C 5.636719 2.734375 5.585938 3.09375 5.40625 3.390625 C 5.226562 3.691406 4.9375 3.910156 4.597656 3.996094 C 4.257812 4.082031 3.898438 4.027344 3.601562 3.847656 L 1.621094 2.667969 C 1.320312 2.492188 1.101562 2.199219 1.015625 1.859375 C 0.929688 1.523438 0.984375 1.164062 1.160156 0.863281 Z M 1.160156 0.863281 " clip-rule="nonzero"/></clipPath><clipPath id="68efc7c129"><rect x="0" width="6" y="0" height="5"/></clipPath><clipPath id="d72581b00a"><path d="M 6 16 L 12 16 L 12 21 L 6 21 Z M 6 16 " clip-rule="nonzero"/></clipPath><clipPath id="d2c08cbfe7"><path d="M 6.488281 17.996094 L 8 15.457031 L 12.4375 18.101562 L 10.925781 20.640625 Z M 6.488281 17.996094 " clip-rule="nonzero"/></clipPath><clipPath id="f30a8d4b7f"><path d="M 6.488281 17.996094 L 8.191406 15.140625 L 12.949219 17.976562 L 11.25 20.832031 Z M 6.488281 17.996094 " clip-rule="nonzero"/></clipPath><clipPath id="881a7c84d9"><path d="M 7.164062 16.867188 C 7.339844 16.566406 7.632812 16.351562 7.96875 16.265625 C 8.308594 16.179688 8.667969 16.230469 8.964844 16.410156 L 10.945312 17.589844 C 11.242188 17.765625 11.460938 18.058594 11.546875 18.394531 C 11.632812 18.734375 11.578125 19.089844 11.398438 19.390625 C 11.222656 19.691406 10.929688 19.90625 10.59375 19.992188 C 10.253906 20.078125 9.898438 20.027344 9.597656 19.847656 L 7.621094 18.667969 C 7.320312 18.492188 7.105469 18.199219 7.019531 17.863281 C 6.933594 17.523438 6.984375 17.167969 7.164062 16.867188 Z M 7.164062 16.867188 " clip-rule="nonzero"/></clipPath><clipPath id="787629cbf6"><path d="M 4 18 L 10 18 L 10 26 L 4 26 Z M 4 18 " clip-rule="nonzero"/></clipPath><clipPath id="73f04eaf0c"><path d="M 7.832031 18.230469 L 9.863281 19.441406 L 6.101562 25.757812 L 4.066406 24.546875 Z M 7.832031 18.230469 " clip-rule="nonzero"/></clipPath><clipPath id="5bd13e6683"><path d="M 8.847656 18.835938 C 9.410156 19.167969 9.59375 19.894531 9.257812 20.457031 L 6.710938 24.738281 C 6.375 25.296875 5.648438 25.480469 5.085938 25.148438 C 4.527344 24.8125 4.339844 24.085938 4.675781 23.523438 L 7.226562 19.246094 C 7.558594 18.683594 8.285156 18.5 8.847656 18.835938 Z M 8.847656 18.835938 " clip-rule="nonzero"/></clipPath><clipPath id="26c3d23cc2"><path d="M 0.253906 0.449219 L 5.6875 0.449219 L 5.6875 7.539062 L 0.253906 7.539062 Z M 0.253906 0.449219 " clip-rule="nonzero"/></clipPath><clipPath id="3f0cabed3b"><path d="M 3.832031 0.230469 L 5.863281 1.441406 L 2.101562 7.757812 L 0.0664062 6.546875 Z M 3.832031 0.230469 " clip-rule="nonzero"/></clipPath><clipPath id="9c912c8430"><path d="M 4.847656 0.835938 C 5.410156 1.167969 5.59375 1.894531 5.257812 2.457031 L 2.710938 6.738281 C 2.375 7.296875 1.648438 7.480469 1.085938 7.148438 C 0.527344 6.8125 0.339844 6.085938 0.675781 5.523438 L 3.226562 1.246094 C 3.558594 0.683594 4.285156 0.5 4.847656 0.835938 Z M 4.847656 0.835938 " clip-rule="nonzero"/></clipPath><clipPath id="b5a488350e"><rect x="0" width="6" y="0" height="8"/></clipPath><clipPath id="50221cd1f4"><path d="M 4 18 L 10 18 L 10 26 L 4 26 Z M 4 18 " clip-rule="nonzero"/></clipPath><clipPath id="fb53065b26"><path d="M 7.832031 18.230469 L 9.734375 19.363281 L 5.957031 25.707031 L 4.050781 24.570312 Z M 7.832031 18.230469 " clip-rule="nonzero"/></clipPath><clipPath id="d140f4a6f4"><path d="M 7.832031 18.230469 L 10.6875 19.929688 L 6.71875 26.59375 L 3.863281 24.894531 Z M 7.832031 18.230469 " clip-rule="nonzero"/></clipPath><clipPath id="2924982a5f"><path d="M 8.847656 18.835938 C 9.40625 19.167969 9.589844 19.894531 9.257812 20.453125 L 6.710938 24.726562 C 6.378906 25.289062 5.652344 25.472656 5.09375 25.136719 C 4.53125 24.804688 4.347656 24.078125 4.679688 23.515625 L 7.226562 19.246094 C 7.5625 18.683594 8.285156 18.5 8.847656 18.835938 Z M 8.847656 18.835938 " clip-rule="nonzero"/></clipPath><clipPath id="bd864321e1"><path d="M 6 17 L 11 17 L 11 23 L 6 23 Z M 6 17 " clip-rule="nonzero"/></clipPath><clipPath id="8815caf722"><path d="M 8.710938 16.742188 L 10.746094 17.957031 L 7.8125 22.882812 L 5.777344 21.667969 Z M 8.710938 16.742188 " clip-rule="nonzero"/></clipPath><clipPath id="744c667b45"><path d="M 9.726562 17.347656 C 10.289062 17.683594 10.472656 18.410156 10.140625 18.972656 L 8.417969 21.863281 C 8.082031 22.425781 7.355469 22.609375 6.796875 22.273438 C 6.234375 21.9375 6.050781 21.210938 6.382812 20.652344 L 8.105469 17.761719 C 8.441406 17.199219 9.167969 17.015625 9.726562 17.347656 Z M 9.726562 17.347656 " clip-rule="nonzero"/></clipPath><clipPath id="0d3c6a65f5"><path d="M 0 0 L 4.632812 0 L 4.632812 5.703125 L 0 5.703125 Z M 0 0 " clip-rule="nonzero"/></clipPath><clipPath id="6847d7b208"><path d="M 2.710938 -0.257812 L 4.746094 0.957031 L 1.8125 5.882812 L -0.222656 4.667969 Z M 2.710938 -0.257812 " clip-rule="nonzero"/></clipPath><clipPath id="31cfe3b4bd"><path d="M 3.726562 0.347656 C 4.289062 0.683594 4.472656 1.410156 4.140625 1.972656 L 2.417969 4.863281 C 2.082031 5.425781 1.355469 5.609375 0.796875 5.273438 C 0.234375 4.9375 0.0507812 4.210938 0.382812 3.652344 L 2.105469 0.761719 C 2.441406 0.199219 3.167969 0.015625 3.726562 0.347656 Z M 3.726562 0.347656 " clip-rule="nonzero"/></clipPath><clipPath id="6788519dd9"><rect x="0" width="5" y="0" height="6"/></clipPath><clipPath id="245aa85539"><path d="M 6 17 L 11 17 L 11 23 L 6 23 Z M 6 17 " clip-rule="nonzero"/></clipPath><clipPath id="04c1aaa9ac"><path d="M 8.710938 16.742188 L 10.613281 17.878906 L 7.589844 22.953125 L 5.6875 21.816406 Z M 8.710938 16.742188 " clip-rule="nonzero"/></clipPath><clipPath id="825efbc0c0"><path d="M 8.710938 16.742188 L 11.566406 18.445312 L 8.164062 24.15625 L 5.308594 22.453125 Z M 8.710938 16.742188 " clip-rule="nonzero"/></clipPath><clipPath id="61b4387126"><path d="M 9.726562 17.347656 C 10.289062 17.683594 10.472656 18.40625 10.136719 18.96875 L 8.417969 21.855469 C 8.085938 22.414062 7.359375 22.597656 6.796875 22.265625 C 6.238281 21.929688 6.054688 21.203125 6.386719 20.644531 L 8.105469 17.757812 C 8.441406 17.199219 9.167969 17.015625 9.726562 17.347656 Z M 9.726562 17.347656 " clip-rule="nonzero"/></clipPath><clipPath id="7c7f33ce47"><path d="M 6 16 L 12 16 L 12 21 L 6 21 Z M 6 16 " clip-rule="nonzero"/></clipPath><clipPath id="e068a5f50c"><path d="M 6.316406 18.023438 L 7.664062 15.757812 L 12.148438 18.429688 L 10.796875 20.691406 Z M 6.316406 18.023438 " clip-rule="nonzero"/></clipPath><clipPath id="305809a303"><path d="M 6.988281 16.890625 C 7.363281 16.265625 8.171875 16.0625 8.796875 16.433594 L 11.007812 17.75 C 11.632812 18.125 11.835938 18.933594 11.464844 19.558594 C 11.09375 20.183594 10.285156 20.386719 9.660156 20.015625 L 7.449219 18.695312 C 6.824219 18.324219 6.617188 17.515625 6.988281 16.890625 Z M 6.988281 16.890625 " clip-rule="nonzero"/></clipPath><clipPath id="e19bae3b4f"><path d="M 0.613281 0 L 6 0 L 6 4.578125 L 0.613281 4.578125 Z M 0.613281 0 " clip-rule="nonzero"/></clipPath><clipPath id="45aaffe30a"><path d="M 0.316406 2.023438 L 1.664062 -0.242188 L 6.148438 2.429688 L 4.796875 4.691406 Z M 0.316406 2.023438 " clip-rule="nonzero"/></clipPath><clipPath id="0916e650d0"><path d="M 0.988281 0.890625 C 1.363281 0.265625 2.171875 0.0625 2.796875 0.433594 L 5.007812 1.75 C 5.632812 2.125 5.835938 2.933594 5.464844 3.558594 C 5.09375 4.183594 4.285156 4.386719 3.660156 4.015625 L 1.449219 2.695312 C 0.824219 2.324219 0.617188 1.515625 0.988281 0.890625 Z M 0.988281 0.890625 " clip-rule="nonzero"/></clipPath><clipPath id="a76415878c"><rect x="0" width="6" y="0" height="5"/></clipPath><clipPath id="2740ad5251"><path d="M 6 16 L 12 16 L 12 21 L 6 21 Z M 6 16 " clip-rule="nonzero"/></clipPath><clipPath id="127f8c7b55"><path d="M 6.316406 18.023438 L 7.828125 15.484375 L 12.265625 18.128906 L 10.753906 20.667969 Z M 6.316406 18.023438 " clip-rule="nonzero"/></clipPath><clipPath id="991ca1170a"><path d="M 6.316406 18.023438 L 8.019531 15.167969 L 12.777344 18.003906 L 11.078125 20.859375 Z M 6.316406 18.023438 " clip-rule="nonzero"/></clipPath><clipPath id="1ed84a06c1"><path d="M 6.988281 16.894531 C 7.363281 16.269531 8.167969 16.066406 8.792969 16.4375 L 11 17.753906 C 11.625 18.125 11.828125 18.929688 11.457031 19.554688 C 11.085938 20.179688 10.277344 20.382812 9.65625 20.011719 L 7.445312 18.695312 C 6.824219 18.324219 6.617188 17.519531 6.988281 16.894531 Z M 6.988281 16.894531 " clip-rule="nonzero"/></clipPath><clipPath id="91b10f510a"><path d="M 11 26 L 17 26 L 17 31 L 11 31 Z M 11 26 " clip-rule="nonzero"/></clipPath><clipPath id="f6a94db296"><path d="M 10.785156 28.386719 L 11.996094 26.355469 L 16.480469 29.027344 L 15.269531 31.058594 Z M 10.785156 28.386719 " clip-rule="nonzero"/></clipPath><clipPath id="fbe8f0ea78"><path d="M 11.390625 27.371094 C 11.726562 26.8125 12.453125 26.628906 13.011719 26.960938 L 15.457031 28.417969 C 16.019531 28.753906 16.203125 29.480469 15.867188 30.039062 C 15.535156 30.601562 14.808594 30.785156 14.25 30.449219 L 11.800781 28.992188 C 11.242188 28.660156 11.058594 27.933594 11.390625 27.371094 Z M 11.390625 27.371094 " clip-rule="nonzero"/></clipPath><clipPath id="27d8994b1a"><path d="M 0 0.484375 L 5.300781 0.484375 L 5.300781 4.972656 L 0 4.972656 Z M 0 0.484375 " clip-rule="nonzero"/></clipPath><clipPath id="157b65660c"><path d="M -0.214844 2.386719 L 0.996094 0.355469 L 5.480469 3.027344 L 4.269531 5.058594 Z M -0.214844 2.386719 " clip-rule="nonzero"/></clipPath><clipPath id="42c067b99f"><path d="M 0.390625 1.371094 C 0.726562 0.8125 1.453125 0.628906 2.011719 0.960938 L 4.457031 2.417969 C 5.019531 2.753906 5.203125 3.480469 4.867188 4.039062 C 4.535156 4.601562 3.808594 4.785156 3.25 4.449219 L 0.800781 2.992188 C 0.242188 2.660156 0.0585938 1.933594 0.390625 1.371094 Z M 0.390625 1.371094 " clip-rule="nonzero"/></clipPath><clipPath id="918e0c48d2"><rect x="0" width="6" y="0" height="5"/></clipPath><clipPath id="60992b3ee2"><path d="M 11 26 L 17 26 L 17 31 L 11 31 Z M 11 26 " clip-rule="nonzero"/></clipPath><clipPath id="01012113cb"><path d="M 10.785156 28.386719 L 11.921875 26.484375 L 16.359375 29.128906 L 15.226562 31.035156 Z M 10.785156 28.386719 " clip-rule="nonzero"/></clipPath><clipPath id="4d611760c6"><path d="M 10.792969 28.390625 L 12.488281 25.546875 L 17.234375 28.371094 L 15.539062 31.21875 Z M 10.792969 28.390625 " clip-rule="nonzero"/></clipPath><clipPath id="01bb3665f3"><path d="M 11.394531 27.382812 C 11.726562 26.824219 12.449219 26.640625 13.007812 26.972656 L 15.441406 28.421875 C 16 28.757812 16.183594 29.476562 15.851562 30.035156 C 15.519531 30.59375 14.796875 30.777344 14.238281 30.445312 L 11.804688 28.996094 C 11.246094 28.660156 11.0625 27.941406 11.394531 27.382812 Z M 11.394531 27.382812 " clip-rule="nonzero"/></clipPath><clipPath id="dc61e74900"><path d="M 11 20 L 18 20 L 18 30 L 11 30 Z M 11 20 " clip-rule="nonzero"/></clipPath><clipPath id="e48b9cb061"><path d="M 15.628906 20.261719 L 17.679688 21.484375 L 12.832031 29.621094 L 10.78125 28.402344 Z M 15.628906 20.261719 " clip-rule="nonzero"/></clipPath><clipPath id="4d592e3b9d"><path d="M 16.65625 20.871094 C 17.21875 21.210938 17.40625 21.941406 17.070312 22.507812 L 13.445312 28.59375 C 13.105469 29.160156 12.375 29.34375 11.808594 29.007812 C 11.242188 28.671875 11.054688 27.9375 11.394531 27.371094 L 15.019531 21.289062 C 15.355469 20.722656 16.089844 20.535156 16.65625 20.871094 Z M 16.65625 20.871094 " clip-rule="nonzero"/></clipPath><clipPath id="7617350939"><path d="M 0 0.339844 L 6.484375 0.339844 L 6.484375 9.554688 L 0 9.554688 Z M 0 0.339844 " clip-rule="nonzero"/></clipPath><clipPath id="7703d6b42b"><path d="M 4.628906 0.261719 L 6.679688 1.484375 L 1.832031 9.621094 L -0.21875 8.402344 Z M 4.628906 0.261719 " clip-rule="nonzero"/></clipPath><clipPath id="4e9284f9df"><path d="M 5.65625 0.871094 C 6.21875 1.210938 6.40625 1.941406 6.070312 2.507812 L 2.445312 8.59375 C 2.105469 9.160156 1.375 9.34375 0.808594 9.007812 C 0.242188 8.671875 0.0546875 7.9375 0.394531 7.371094 L 4.019531 1.289062 C 4.355469 0.722656 5.089844 0.535156 5.65625 0.871094 Z M 5.65625 0.871094 " clip-rule="nonzero"/></clipPath><clipPath id="cb29b80a8e"><rect x="0" width="7" y="0" height="10"/></clipPath><clipPath id="4f570a101d"><path d="M 11 20 L 18 20 L 18 30 L 11 30 Z M 11 20 " clip-rule="nonzero"/></clipPath><clipPath id="c42cd94357"><path d="M 15.628906 20.261719 L 17.53125 21.394531 L 12.621094 29.640625 L 10.714844 28.507812 Z M 15.628906 20.261719 " clip-rule="nonzero"/></clipPath><clipPath id="6c37fa0098"><path d="M 15.621094 20.277344 L 18.46875 21.972656 L 13.378906 30.511719 L 10.53125 28.816406 Z M 15.621094 20.277344 " clip-rule="nonzero"/></clipPath><clipPath id="e588c90f8d"><path d="M 16.640625 20.882812 C 17.207031 21.21875 17.390625 21.949219 17.054688 22.511719 L 13.445312 28.570312 C 13.109375 29.132812 12.378906 29.316406 11.816406 28.980469 C 11.253906 28.648438 11.066406 27.917969 11.402344 27.351562 L 15.011719 21.296875 C 15.347656 20.734375 16.078125 20.546875 16.640625 20.882812 Z M 16.640625 20.882812 " clip-rule="nonzero"/></clipPath><clipPath id="35a66d6c0b"><path d="M 12 20 L 18 20 L 18 27 L 12 27 Z M 12 20 " clip-rule="nonzero"/></clipPath><clipPath id="056c9e1aaf"><path d="M 15.582031 20.339844 L 17.617188 21.554688 L 14.511719 26.765625 L 12.476562 25.554688 Z M 15.582031 20.339844 " clip-rule="nonzero"/></clipPath><clipPath id="bcb4703ebb"><path d="M 16.597656 20.945312 C 17.160156 21.28125 17.34375 22.007812 17.011719 22.570312 L 15.121094 25.742188 C 14.785156 26.304688 14.058594 26.488281 13.496094 26.152344 C 12.9375 25.820312 12.75 25.09375 13.085938 24.53125 L 14.976562 21.359375 C 15.3125 20.796875 16.039062 20.613281 16.597656 20.945312 Z M 16.597656 20.945312 " clip-rule="nonzero"/></clipPath><clipPath id="89672e5938"><path d="M 0.519531 0.578125 L 5.484375 0.578125 L 5.484375 6.71875 L 0.519531 6.71875 Z M 0.519531 0.578125 " clip-rule="nonzero"/></clipPath><clipPath id="5436fcaaed"><path d="M 3.582031 0.339844 L 5.617188 1.554688 L 2.511719 6.765625 L 0.476562 5.554688 Z M 3.582031 0.339844 " clip-rule="nonzero"/></clipPath><clipPath id="a44dea06ec"><path d="M 4.597656 0.945312 C 5.160156 1.28125 5.34375 2.007812 5.011719 2.570312 L 3.121094 5.742188 C 2.785156 6.304688 2.058594 6.488281 1.496094 6.152344 C 0.9375 5.820312 0.75 5.09375 1.085938 4.53125 L 2.976562 1.359375 C 3.3125 0.796875 4.039062 0.613281 4.597656 0.945312 Z M 4.597656 0.945312 " clip-rule="nonzero"/></clipPath><clipPath id="a3b10c4494"><rect x="0" width="6" y="0" height="7"/></clipPath><clipPath id="c1c38c4b73"><path d="M 12 20 L 18 20 L 18 27 L 12 27 Z M 12 20 " clip-rule="nonzero"/></clipPath><clipPath id="81f7fc2a70"><path d="M 15.582031 20.339844 L 17.484375 21.476562 L 14.460938 26.550781 L 12.558594 25.414062 Z M 15.582031 20.339844 " clip-rule="nonzero"/></clipPath><clipPath id="b8d7037aba"><path d="M 15.582031 20.34375 L 18.4375 22.042969 L 15.035156 27.757812 L 12.179688 26.054688 Z M 15.582031 20.34375 " clip-rule="nonzero"/></clipPath><clipPath id="da2c82522a"><path d="M 16.597656 20.949219 C 17.160156 21.28125 17.34375 22.007812 17.007812 22.570312 L 15.121094 25.738281 C 14.785156 26.300781 14.058594 26.484375 13.5 26.148438 C 12.9375 25.8125 12.753906 25.089844 13.089844 24.527344 L 14.976562 21.359375 C 15.3125 20.796875 16.035156 20.613281 16.597656 20.949219 Z M 16.597656 20.949219 " clip-rule="nonzero"/></clipPath></defs><g clip-path="url(#8da1d0402f)"><g clip-path="url(#4b8832d81d)"><g clip-path="url(#584dad4739)"><g transform="matrix(1, 0, 0, 1, 2, 1)"><g clip-path="url(#d9d7e1e781)"><g clip-path="url(#3b1507935a)"><g clip-path="url(#a2e49850ad)"><g clip-path="url(#b8e9b091f5)"><path fill="#e69f34" d="M 12.574219 -0.976562 L 28.496094 8.539062 L 15.488281 30.304688 L -0.433594 20.789062 Z M 12.574219 -0.976562 " fill-opacity="1" fill-rule="nonzero"/></g></g></g></g></g></g></g></g><g clip-path="url(#ef35311ccd)"><g clip-path="url(#d2b5abeee1)"><g clip-path="url(#7776a82788)"><g clip-path="url(#a975ff1c7b)"><path stroke-linecap="butt" transform="matrix(0.633741, 0.378724, -0.378724, 0.633741, 14.572912, 0.0278611)" fill="none" stroke-linejoin="miter" d="M 3.997349 0.00191621 L 21.112756 -0.000534072 C 22.173507 0.000431215 23.189959 0.422352 23.939059 1.170466 C 24.688159 1.91858 25.111027 2.935616 25.110062 3.996366 L 25.108025 30.3355 C 25.107059 31.396251 24.687852 32.417245 23.939738 33.166345 C 23.18891 33.910903 22.171874 34.333771 21.111124 34.332806 L 3.995716 34.335256 C 2.934966 34.334291 1.921228 33.916912 1.169414 33.164256 C 0.420314 32.416142 0.00198726 31.396392 -0.00158925 30.338356 L 0.000448151 3.999222 C 0.00141344 2.938471 0.423335 1.922019 1.171448 1.172919 C 1.919562 0.423819 2.936598 0.000950924 3.997349 0.00191621 Z M 3.997349 0.00191621 " stroke="#000000" stroke-width="2" stroke-opacity="1" stroke-miterlimit="4"/></g></g></g></g><g clip-path="url(#9e84764782)"><g clip-path="url(#58631b1bb3)"><g clip-path="url(#5ffe62509a)"><g transform="matrix(1, 0, 0, 1, 2, 2)"><g clip-path="url(#3d0501e064)"><g clip-path="url(#45e93537d7)"><g clip-path="url(#84589bad61)"><g clip-path="url(#e548f9ce36)"><path fill="#e9e8e4" d="M 12.222656 -0.421875 L 26.929688 8.363281 L 14.261719 29.558594 L -0.441406 20.773438 Z M 12.222656 -0.421875 " fill-opacity="1" fill-rule="nonzero"/></g></g></g></g></g></g></g></g><g clip-path="url(#5b1a573a57)"><g clip-path="url(#d1a06f401e)"><g clip-path="url(#1ff867f187)"><g transform="matrix(1, 0, 0, 1, 1, 3)"><g clip-path="url(#374a62c553)"><g clip-path="url(#3a4181093e)"><g clip-path="url(#cb7680934c)"><g clip-path="url(#daf153be2c)"><path fill="#ffffff" d="M 12.007812 -0.296875 L 27.925781 9.214844 L 14.921875 30.980469 L -1 21.46875 Z M 12.007812 -0.296875 " fill-opacity="1" fill-rule="nonzero"/></g></g></g></g></g></g></g></g><g clip-path="url(#8fcca16f8e)"><g clip-path="url(#50d1a7b8a3)"><g clip-path="url(#c2f5d2ad6b)"><g clip-path="url(#ce07fd1e07)"><path stroke-linecap="butt" transform="matrix(0.633741, 0.378724, -0.378724, 0.633741, 13.006015, 2.705087)" fill="none" stroke-linejoin="miter" d="M 3.996916 -0.000104524 L 21.112324 -0.00255481 C 22.173074 -0.00158952 23.189526 0.420332 23.938626 1.168446 C 24.69044 1.921101 25.108767 2.940851 25.112343 3.998887 L 25.110306 30.338021 C 25.109341 31.398772 24.687419 32.415224 23.939306 33.164324 C 23.18665 33.916138 22.174156 34.336292 21.113406 34.335327 L 3.997998 34.337777 C 2.937248 34.336812 1.920796 33.914891 1.171695 33.166777 C 0.419881 32.414121 -0.00298721 31.397085 -0.00202193 30.336335 L 0.0000154759 3.997201 C 0.000980762 2.936451 0.422902 1.919999 1.171016 1.170899 C 1.91913 0.421798 2.936166 -0.00106981 3.996916 -0.000104524 Z M 3.996916 -0.000104524 " stroke="#000000" stroke-width="2" stroke-opacity="1" stroke-miterlimit="4"/></g></g></g></g><g clip-path="url(#5fc0a1f62c)"><g clip-path="url(#b4f75b2f2e)"><g clip-path="url(#2e94ba7f14)"><g transform="matrix(1, 0, 0, 1, 10, 6)"><g clip-path="url(#9bd8524146)"><g clip-path="url(#d84c6ac4d7)"><g clip-path="url(#f8e7f706a3)"><g clip-path="url(#fcef69db6f)"><path fill="#ffffff" d="M 4.765625 0.199219 L 7.003906 1.53125 L 2.164062 9.652344 L -0.0703125 8.316406 Z M 4.765625 0.199219 " fill-opacity="1" fill-rule="nonzero"/></g></g></g></g></g></g></g></g><g clip-path="url(#95fc7cbad9)"><g clip-path="url(#366da2a8ec)"><g clip-path="url(#00839b57d8)"><g clip-path="url(#f54ec2bae8)"><path stroke-linecap="butt" transform="matrix(0.634258, 0.377857, -0.377857, 0.634258, 14.756861, 6.212052)" fill="none" stroke-linejoin="miter" d="M 1.756159 -0.000991688 C 2.223477 -0.0022496 2.673869 0.18518 2.999502 0.51468 C 3.332389 0.846019 3.517015 1.290318 3.518273 1.757635 L 3.516545 10.996822 C 3.517803 11.464139 3.327665 11.909986 3.000873 12.240165 C 2.67408 12.570344 2.222527 12.753132 1.75521 12.75439 C 1.292438 12.75294 0.844753 12.570056 0.514575 12.243263 C 0.186234 11.909217 0.00160785 11.464918 0.000349933 10.9976 L 0.00207803 1.758414 C 0.000820122 1.291096 0.183704 0.843412 0.51775 0.515071 C 0.844543 0.184892 1.288842 0.000266225 1.756159 -0.000991688 Z M 1.756159 -0.000991688 " stroke="#009a44" stroke-width="2" stroke-opacity="1" stroke-miterlimit="4"/></g></g></g></g><g clip-path="url(#cbbaec2c37)"><g clip-path="url(#153af38719)"><g clip-path="url(#3770463050)"><g transform="matrix(1, 0, 0, 1, 10, 9)"><g clip-path="url(#9e5a20efc5)"><g clip-path="url(#680a0ac861)"><g clip-path="url(#d8a8cf325a)"><g clip-path="url(#72a40b9d70)"><path fill="#009a44" d="M 2.875 0.472656 L 5.042969 1.765625 L 2.144531 6.632812 L -0.0234375 5.339844 Z M 2.875 0.472656 " fill-opacity="1" fill-rule="nonzero"/></g></g></g></g></g></g></g></g><g clip-path="url(#efb4e18909)"><g clip-path="url(#1fbb09910c)"><g clip-path="url(#2e8d47d678)"><g clip-path="url(#7870ff41dd)"><path stroke-linecap="butt" transform="matrix(0.634258, 0.377857, -0.377857, 0.634258, 12.873505, 9.479217)" fill="none" stroke-linejoin="miter" d="M 1.701275 -0.0015163 C 2.643163 -0.00219462 3.406616 0.762417 3.407295 1.704305 L 3.404883 5.949136 C 3.405561 6.891024 2.640949 7.654477 1.703607 7.652447 C 0.761719 7.653126 0.000973387 6.893059 0.000295067 5.951171 L -0.00000106795 1.701796 C -0.000679388 0.759908 0.759387 -0.000837978 1.701275 -0.0015163 Z M 1.701275 -0.0015163 " stroke="#009a44" stroke-width="2" stroke-opacity="1" stroke-miterlimit="4"/></g></g></g></g><g clip-path="url(#b3bf00d7aa)"><g clip-path="url(#cdfbcbe756)"><g clip-path="url(#09d8ab909a)"><g transform="matrix(1, 0, 0, 1, 11, 14)"><g clip-path="url(#8207b311b1)"><g clip-path="url(#72fdd42222)"><g clip-path="url(#b97ccbb46a)"><g clip-path="url(#f7de475d7e)"><path fill="#ffffff" d="M 4.765625 -0.390625 L 7.003906 0.941406 L 2.15625 9.078125 L -0.0820312 7.746094 Z M 4.765625 -0.390625 " fill-opacity="1" fill-rule="nonzero"/></g></g></g></g></g></g></g></g><g clip-path="url(#8dd3657f70)"><g clip-path="url(#38b7daeca8)"><g clip-path="url(#cb5213501a)"><g clip-path="url(#be578c065d)"><path stroke-linecap="butt" transform="matrix(0.634258, 0.377857, -0.377857, 0.634258, 15.760831, 13.618654)" fill="none" stroke-linejoin="miter" d="M 1.755841 -0.00135655 C 2.225866 0.00193105 2.673551 0.184815 2.999184 0.514315 C 3.33207 0.845654 3.516696 1.289953 3.517954 1.75727 L 3.516129 11.027308 C 3.514679 11.49008 3.331795 11.937765 3.000457 12.270652 C 2.670956 12.596285 2.222112 12.783618 1.75934 12.782168 C 1.292023 12.783426 0.844338 12.600543 0.515997 12.266496 C 0.185818 11.939704 -0.00151555 11.490859 -0.0000654901 11.028087 L 0.00175928 1.758049 C 0.000501369 1.290732 0.183385 0.843047 0.517431 0.514706 C 0.844224 0.184527 1.288523 -0.0000986335 1.755841 -0.00135655 Z M 1.755841 -0.00135655 " stroke="#ee121b" stroke-width="2" stroke-opacity="1" stroke-miterlimit="4"/></g></g></g></g><g clip-path="url(#67331949f3)"><g clip-path="url(#da3776076a)"><g clip-path="url(#72add214f9)"><g transform="matrix(1, 0, 0, 1, 11, 17)"><g clip-path="url(#efc4105edc)"><g clip-path="url(#799fb18f9e)"><g clip-path="url(#205dd8369a)"><g clip-path="url(#033afa483e)"><path fill="#ee121b" d="M 2.9375 -0.0859375 L 4.972656 1.125 L 2.066406 6.003906 L 0.03125 4.792969 Z M 2.9375 -0.0859375 " fill-opacity="1" fill-rule="nonzero"/></g></g></g></g></g></g></g></g><g clip-path="url(#8e04e9b905)"><g clip-path="url(#862b65e97e)"><g clip-path="url(#8d677c0a5c)"><g clip-path="url(#3114ef1d57)"><path stroke-linecap="butt" transform="matrix(0.634258, 0.377857, -0.377857, 0.634258, 13.936863, 16.912903)" fill="none" stroke-linejoin="miter" d="M 1.603112 0.00138939 C 2.487843 -0.00219021 3.205164 0.716 3.204198 1.603438 L 3.202851 6.087827 C 3.203722 6.968012 2.485532 7.685333 1.600802 7.688913 C 0.717909 7.685239 0.000587438 6.967049 -0.000284192 6.086864 L 0.00106361 1.602475 C -0.00251599 0.717745 0.715674 0.000423486 1.603112 0.00138939 Z M 1.603112 0.00138939 " stroke="#ee121b" stroke-width="2" stroke-opacity="1" stroke-miterlimit="4"/></g></g></g></g><g clip-path="url(#c470af379e)"><g clip-path="url(#f583d80263)"><g clip-path="url(#3a2da8cfe8)"><g transform="matrix(1, 0, 0, 1, 18, 11)"><g clip-path="url(#15b6f2e2da)"><g clip-path="url(#b080a956e2)"><g clip-path="url(#ad09eb5a15)"><g clip-path="url(#1bc3216faf)"><path fill="#ffffff" d="M 4.773438 -0.015625 L 7.011719 1.316406 L 2.175781 9.4375 L -0.0625 8.101562 Z M 4.773438 -0.015625 " fill-opacity="1" fill-rule="nonzero"/></g></g></g></g></g></g></g></g><g clip-path="url(#28ed365938)"><g clip-path="url(#8ef4aa0d89)"><g clip-path="url(#08253f5105)"><g clip-path="url(#84cc976b5b)"><path stroke-linecap="butt" transform="matrix(0.634258, 0.377857, -0.377857, 0.634258, 22.766597, 10.997466)" fill="none" stroke-linejoin="miter" d="M 1.758287 -0.00266593 C 2.221059 -0.00121588 2.671452 0.186213 3.00163 0.513006 C 3.329971 0.847052 3.514597 1.291352 3.515855 1.758669 L 3.514127 10.997856 C 3.515385 11.465173 3.329793 11.908312 2.998455 12.241199 C 2.671662 12.571377 2.227363 12.756003 1.757338 12.752716 C 1.29002 12.753973 0.842336 12.57109 0.516703 12.241589 C 0.183816 11.910251 -0.000809792 11.465951 -0.0020677 10.998634 L -0.000339603 1.759447 C -0.00159752 1.29213 0.185832 0.841737 0.515332 0.516104 C 0.842125 0.185926 1.29097 -0.00140802 1.758287 -0.00266593 Z M 1.758287 -0.00266593 " stroke="#009a44" stroke-width="2" stroke-opacity="1" stroke-miterlimit="4"/></g></g></g></g><g clip-path="url(#4d12a47961)"><g clip-path="url(#42efdf36e2)"><g clip-path="url(#a12403646a)"><g transform="matrix(1, 0, 0, 1, 18, 14)"><g clip-path="url(#3e6842c2b5)"><g clip-path="url(#94d812cb3b)"><g clip-path="url(#723f771579)"><g clip-path="url(#c3a137629b)"><path fill="#009a44" d="M 2.941406 0.289062 L 4.976562 1.5 L 2.074219 6.371094 L 0.0390625 5.160156 Z M 2.941406 0.289062 " fill-opacity="1" fill-rule="nonzero"/></g></g></g></g></g></g></g></g><g clip-path="url(#2553f56b20)"><g clip-path="url(#1d3e1370b3)"><g clip-path="url(#f5310d05a2)"><g clip-path="url(#76d60f0698)"><path stroke-linecap="butt" transform="matrix(0.634258, 0.377857, -0.377857, 0.634258, 20.940822, 14.290479)" fill="none" stroke-linejoin="miter" d="M 1.601265 -0.00157149 C 2.488703 -0.000605582 3.206025 0.717584 3.202351 1.600477 L 3.204678 6.070358 C 3.201004 6.953251 2.48736 7.667865 1.602629 7.671444 C 0.715191 7.670478 -0.00213027 6.952289 0.00154361 6.069396 L -0.000783666 1.599514 C -0.0016553 0.719329 0.716534 0.00200811 1.601265 -0.00157149 Z M 1.601265 -0.00157149 " stroke="#009a44" stroke-width="2" stroke-opacity="1" stroke-miterlimit="4"/></g></g></g></g><g clip-path="url(#583f167e1d)"><g clip-path="url(#f094553a2f)"><g clip-path="url(#16ff8104bc)"><g transform="matrix(1, 0, 0, 1, 6, 16)"><g clip-path="url(#68efc7c129)"><g clip-path="url(#7e993718d7)"><g clip-path="url(#b66981f2a7)"><g clip-path="url(#2b9df22b79)"><path fill="#ffffff" d="M 0.488281 1.996094 L 1.835938 -0.269531 L 6.078125 2.261719 L 4.730469 4.523438 Z M 0.488281 1.996094 " fill-opacity="1" fill-rule="nonzero"/></g></g></g></g></g></g></g></g><g clip-path="url(#d72581b00a)"><g clip-path="url(#d2c08cbfe7)"><g clip-path="url(#f30a8d4b7f)"><g clip-path="url(#881a7c84d9)"><path stroke-linecap="butt" transform="matrix(0.377857, -0.634258, 0.634258, 0.377857, 6.490107, 17.996641)" fill="none" stroke-linejoin="miter" d="M 1.781501 0.00126528 C 2.253364 -0.00270062 2.706464 0.189274 3.039351 0.520612 C 3.374946 0.856496 3.564987 1.309886 3.5617 1.779912 L 3.561897 4.902291 C 3.563155 5.369608 3.373889 5.827254 3.04255 6.160141 C 2.706667 6.495736 2.255114 6.678524 1.780543 6.677944 C 1.30868 6.68191 0.85558 6.489935 0.522693 6.158597 C 0.187099 5.822713 -0.000235189 5.373869 0.000344419 4.899298 L 0.00285456 1.781464 C -0.00111134 1.309601 0.190863 0.856501 0.522202 0.523614 C 0.858085 0.188019 1.30693 0.000685673 1.781501 0.00126528 Z M 1.781501 0.00126528 " stroke="#009a44" stroke-width="2" stroke-opacity="1" stroke-miterlimit="4"/></g></g></g></g><g clip-path="url(#787629cbf6)"><g clip-path="url(#73f04eaf0c)"><g clip-path="url(#5bd13e6683)"><g transform="matrix(1, 0, 0, 1, 4, 18)"><g clip-path="url(#b5a488350e)"><g clip-path="url(#26c3d23cc2)"><g clip-path="url(#3f0cabed3b)"><g clip-path="url(#9c912c8430)"><path fill="#ffffff" d="M 3.832031 0.230469 L 5.863281 1.441406 L 2.101562 7.757812 L 0.0664062 6.546875 Z M 3.832031 0.230469 " fill-opacity="1" fill-rule="nonzero"/></g></g></g></g></g></g></g></g><g clip-path="url(#50221cd1f4)"><g clip-path="url(#fb53065b26)"><g clip-path="url(#d140f4a6f4)"><g clip-path="url(#2924982a5f)"><path stroke-linecap="butt" transform="matrix(0.634258, 0.377857, -0.377857, 0.634258, 7.831478, 18.22941)" fill="none" stroke-linejoin="miter" d="M 1.602945 0.00132938 C 2.48313 0.000457725 3.200452 0.718647 3.201323 1.598833 L 3.200172 8.337214 C 3.203752 9.221945 2.485562 9.939266 1.602669 9.935592 C 0.717939 9.939172 0.000617425 9.220982 -0.0029622 8.336252 L 0.000896814 1.602415 C 0.00186269 0.714977 0.715507 0.000363507 1.602945 0.00132938 Z M 1.602945 0.00132938 " stroke="#009a44" stroke-width="2" stroke-opacity="1" stroke-miterlimit="4"/></g></g></g></g><g clip-path="url(#bd864321e1)"><g clip-path="url(#8815caf722)"><g clip-path="url(#744c667b45)"><g transform="matrix(1, 0, 0, 1, 6, 17)"><g clip-path="url(#6788519dd9)"><g clip-path="url(#0d3c6a65f5)"><g clip-path="url(#6847d7b208)"><g clip-path="url(#31cfe3b4bd)"><path fill="#009a44" d="M 2.710938 -0.257812 L 4.746094 0.957031 L 1.8125 5.882812 L -0.222656 4.667969 Z M 2.710938 -0.257812 " fill-opacity="1" fill-rule="nonzero"/></g></g></g></g></g></g></g></g><g clip-path="url(#245aa85539)"><g clip-path="url(#04c1aaa9ac)"><g clip-path="url(#825efbc0c0)"><g clip-path="url(#61b4387126)"><path stroke-linecap="butt" transform="matrix(0.634258, 0.377857, -0.377857, 0.634258, 8.711958, 16.74392)" fill="none" stroke-linejoin="miter" d="M 1.599178 -0.000827501 C 2.486617 0.000138348 3.20123 0.713783 3.200264 1.601221 L 3.201432 6.151858 C 3.202303 7.032043 2.484114 7.749364 1.599383 7.752944 C 0.71649 7.74927 -0.000831374 7.03108 -0.00170306 6.150895 L -0.00287019 1.600259 C 0.00080363 0.717366 0.718993 0.000044187 1.599178 -0.000827501 Z M 1.599178 -0.000827501 " stroke="#009a44" stroke-width="2" stroke-opacity="1" stroke-miterlimit="4"/></g></g></g></g><g clip-path="url(#7c7f33ce47)"><g clip-path="url(#e068a5f50c)"><g clip-path="url(#305809a303)"><g transform="matrix(1, 0, 0, 1, 6, 16)"><g clip-path="url(#a76415878c)"><g clip-path="url(#e19bae3b4f)"><g clip-path="url(#45aaffe30a)"><g clip-path="url(#0916e650d0)"><path fill="#009a44" d="M 0.316406 2.023438 L 1.664062 -0.242188 L 6.136719 2.425781 L 4.789062 4.6875 Z M 0.316406 2.023438 " fill-opacity="1" fill-rule="nonzero"/></g></g></g></g></g></g></g></g><g clip-path="url(#2740ad5251)"><g clip-path="url(#127f8c7b55)"><g clip-path="url(#991ca1170a)"><g clip-path="url(#1ed84a06c1)"><path stroke-linecap="butt" transform="matrix(0.377857, -0.634258, 0.634258, 0.377857, 6.317125, 18.023537)" fill="none" stroke-linejoin="miter" d="M 1.77904 -0.00168086 C 2.766286 0.0014126 3.560494 0.796973 3.561946 1.781511 L 3.560114 5.262308 C 3.561566 6.246847 2.766006 7.041055 1.781467 7.042507 C 0.796929 7.043959 0.0000128557 6.243854 0.00126877 5.263861 L 0.000393553 1.778518 C 0.00164947 0.798525 0.794502 -0.000228805 1.77904 -0.00168086 Z M 1.77904 -0.00168086 " stroke="#009a44" stroke-width="2" stroke-opacity="1" stroke-miterlimit="4"/></g></g></g></g><g clip-path="url(#91b10f510a)"><g clip-path="url(#f6a94db296)"><g clip-path="url(#fbe8f0ea78)"><g transform="matrix(1, 0, 0, 1, 11, 26)"><g clip-path="url(#918e0c48d2)"><g clip-path="url(#27d8994b1a)"><g clip-path="url(#157b65660c)"><g clip-path="url(#42c067b99f)"><path fill="#ffffff" d="M -0.214844 2.386719 L 0.996094 0.355469 L 5.472656 3.023438 L 4.261719 5.054688 Z M -0.214844 2.386719 " fill-opacity="1" fill-rule="nonzero"/></g></g></g></g></g></g></g></g><g clip-path="url(#60992b3ee2)"><g clip-path="url(#01012113cb)"><g clip-path="url(#4d611760c6)"><g clip-path="url(#01bb3665f3)"><path stroke-linecap="butt" transform="matrix(0.377857, -0.634258, 0.634258, 0.377857, 10.793281, 28.392385)" fill="none" stroke-linejoin="miter" d="M 1.591599 -0.000231567 C 2.471784 -0.00110323 3.186398 0.712541 3.187269 1.592726 L 3.187952 5.429234 C 3.184278 6.312127 2.475179 7.024033 1.594994 7.024904 C 0.714809 7.025776 0.000195729 6.312132 -0.00067593 5.431947 L -0.00135833 1.595439 C 0.00231551 0.712546 0.711414 0.000640092 1.591599 -0.000231567 Z M 1.591599 -0.000231567 " stroke="#009a44" stroke-width="2" stroke-opacity="1" stroke-miterlimit="4"/></g></g></g></g><g clip-path="url(#dc61e74900)"><g clip-path="url(#e48b9cb061)"><g clip-path="url(#4d592e3b9d)"><g transform="matrix(1, 0, 0, 1, 11, 20)"><g clip-path="url(#cb29b80a8e)"><g clip-path="url(#7617350939)"><g clip-path="url(#7703d6b42b)"><g clip-path="url(#4e9284f9df)"><path fill="#ffffff" d="M 4.628906 0.261719 L 6.679688 1.484375 L 1.832031 9.621094 L -0.21875 8.402344 Z M 4.628906 0.261719 " fill-opacity="1" fill-rule="nonzero"/></g></g></g></g></g></g></g></g><g clip-path="url(#4f570a101d)"><g clip-path="url(#c42cd94357)"><g clip-path="url(#6c37fa0098)"><g clip-path="url(#e588c90f8d)"><path stroke-linecap="butt" transform="matrix(0.634258, 0.377857, -0.377857, 0.634258, 15.620581, 20.275653)" fill="none" stroke-linejoin="miter" d="M 1.607881 -0.000614352 C 2.499865 -0.00235642 3.219894 0.720379 3.218929 1.607817 L 3.218942 11.160064 C 3.217976 12.047503 2.49524 12.767532 1.607802 12.766566 C 0.723071 12.770146 -0.00150341 12.050118 -0.00324547 11.158134 L -0.000550668 1.610433 C 0.000415239 0.722995 0.720443 -0.00158026 1.607881 -0.000614352 Z M 1.607881 -0.000614352 " stroke="#009a44" stroke-width="2" stroke-opacity="1" stroke-miterlimit="4"/></g></g></g></g><g clip-path="url(#35a66d6c0b)"><g clip-path="url(#056c9e1aaf)"><g clip-path="url(#bcb4703ebb)"><g transform="matrix(1, 0, 0, 1, 12, 20)"><g clip-path="url(#a3b10c4494)"><g clip-path="url(#89672e5938)"><g clip-path="url(#5436fcaaed)"><g clip-path="url(#a44dea06ec)"><path fill="#009a44" d="M 3.582031 0.339844 L 5.617188 1.554688 L 2.515625 6.757812 L 0.480469 5.546875 Z M 3.582031 0.339844 " fill-opacity="1" fill-rule="nonzero"/></g></g></g></g></g></g></g></g><g clip-path="url(#c1c38c4b73)"><g clip-path="url(#81f7fc2a70)"><g clip-path="url(#b8d7037aba)"><g clip-path="url(#da2c82522a)"><path stroke-linecap="butt" transform="matrix(0.634258, 0.377857, -0.377857, 0.634258, 15.581969, 20.342412)" fill="none" stroke-linejoin="miter" d="M 1.602567 0.00199539 C 2.487297 -0.00158421 3.204618 0.716606 3.203653 1.604044 L 3.204336 6.5984 C 3.20337 7.485838 2.485181 8.20316 1.602288 8.199486 C 0.714849 8.19852 0.000236026 7.484876 0.00120193 6.597437 L 0.000518058 1.603081 C 0.00148396 0.715643 0.715128 0.00102949 1.602567 0.00199539 Z M 1.602567 0.00199539 " stroke="#009a44" stroke-width="2" stroke-opacity="1" stroke-miterlimit="4"/></g></g></g></g></svg>